<?xml version="1.0" standalone="no"?>
<!DOCTYPE svg PUBLIC "-//W3C//DTD SVG 20010904//EN"
 "http://www.w3.org/TR/2001/REC-SVG-20010904/DTD/svg10.dtd">
<svg version="1.0" xmlns="http://www.w3.org/2000/svg"
 width="300.000000pt" height="286.000000pt" viewBox="0 0 300.000000 286.000000"
 preserveAspectRatio="xMidYMid meet">

<g transform="translate(0.000000,286.000000) scale(0.100000,-0.100000)"
fill="#000000" stroke="none">
<path d="M1402 2696 c-63 -16 -103 -43 -116 -78 -13 -36 1 -96 29 -124 28 -28
60 -30 150 -10 66 14 85 12 85 -9 0 -23 -147 -56 -159 -37 -9 16 -81 -4 -81
-22 0 -7 10 -26 22 -41 21 -27 24 -27 92 -22 82 6 182 40 196 67 6 10 10 37
10 60 0 33 -6 48 -30 72 -28 28 -35 30 -78 24 -135 -18 -149 -18 -157 -6 -11
19 15 37 70 48 34 7 54 7 62 0 20 -17 83 -1 83 21 0 58 -77 83 -178 57z"/>
<path d="M1082 2588 c-23 -14 -31 -25 -26 -37 16 -38 16 -51 1 -51 -8 0 -20 7
-27 15 -18 22 -48 18 -96 -12 -71 -45 -81 -92 -36 -181 15 -30 41 -70 58 -89
41 -43 96 -45 162 -7 41 24 44 28 39 60 -7 44 10 53 37 20 l21 -26 33 20 c18
11 31 24 29 28 -23 42 -160 282 -161 282 0 0 -16 -10 -34 -22z m47 -170 c21
-37 24 -51 15 -65 -18 -30 -77 -64 -103 -61 -35 4 -86 77 -77 111 8 33 62 66
105 64 29 -2 37 -8 60 -49z"/>
<path d="M1780 2315 c-113 -25 -193 -53 -263 -90 -37 -19 -106 -49 -154 -66
-208 -73 -385 -217 -560 -455 -66 -89 -87 -136 -108 -244 -9 -47 -23 -107 -32
-134 -36 -111 12 -256 117 -357 37 -35 60 -66 60 -79 0 -47 58 -116 140 -167
74 -45 301 -90 414 -81 44 4 87 17 147 45 46 21 114 47 151 57 38 10 94 36
130 59 79 52 305 242 319 268 12 23 4 39 -19 39 -29 0 -109 44 -105 58 3 7 -1
10 -11 6 -12 -5 -15 -2 -10 10 5 12 0 16 -19 16 -14 0 -29 5 -32 10 -3 5 -11
10 -17 10 -6 0 -3 -9 7 -20 16 -17 16 -20 2 -20 -9 0 -19 5 -23 11 -3 6 -19 9
-35 5 -16 -3 -31 -1 -35 5 -4 6 -30 22 -58 34 -29 13 -58 30 -65 39 -11 13
-93 56 -107 56 -2 0 -1 -7 3 -16 5 -13 2 -15 -18 -9 -13 4 -37 14 -52 22 -22
11 -32 11 -42 3 -11 -9 -20 -7 -39 7 -32 23 -33 36 -3 28 21 -6 21 -6 -3 13
-21 18 -22 22 -10 37 27 33 47 36 84 15 19 -12 42 -32 50 -46 11 -16 26 -24
46 -24 19 0 41 -12 66 -35 33 -32 52 -40 78 -36 5 1 22 -3 38 -8 27 -9 28 -9
22 14 l-6 25 43 -20 c24 -11 54 -20 66 -20 31 0 113 -37 133 -60 10 -11 20
-20 24 -20 3 0 24 -11 45 -24 l38 -24 70 96 c39 53 80 117 93 141 29 58 66
207 75 304 6 69 5 80 -12 93 -17 13 -17 15 0 25 18 11 25 79 7 79 -5 0 -10 10
-11 23 0 22 0 22 -9 1 -6 -17 -15 -20 -40 -16 l-31 4 27 29 c15 16 25 31 22
35 -4 3 -11 -4 -18 -15 -6 -12 -18 -21 -27 -21 -11 0 -6 11 18 39 20 23 41 37
50 35 13 -4 14 4 6 66 -9 64 -11 68 -29 59 -11 -6 -32 -11 -48 -11 -17 -1 -39
-11 -51 -25 -13 -12 -27 -23 -33 -23 -6 1 -1 9 12 19 12 11 22 24 22 30 0 6
13 17 29 25 16 9 31 22 34 31 4 8 16 15 27 15 23 0 49 45 34 59 -13 12 -242
54 -259 47 -8 -3 -17 0 -21 6 -4 6 -23 8 -49 5 -24 -4 -46 -2 -52 4 -18 18
-162 20 -233 4z m353 -72 c-4 -10 -16 -30 -28 -44 -12 -15 -27 -40 -34 -58 -8
-17 -17 -31 -22 -31 -13 0 -11 13 7 38 8 12 16 33 17 47 1 14 7 26 12 27 6 0
16 9 23 19 17 24 33 25 25 2z m-325 -31 c2 -14 -2 -22 -11 -22 -20 0 -26 9
-20 31 7 25 27 19 31 -9z m377 1 l-18 -28 22 19 c31 28 35 15 5 -17 l-25 -27
-21 20 c-21 19 -21 20 -3 40 10 11 27 20 38 20 19 0 19 -1 2 -27z m-495 8 c0
-11 -39 -59 -40 -49 0 14 23 58 32 58 4 0 8 -4 8 -9z m156 -53 l-6 -53 20 38
c11 20 25 37 30 37 11 0 14 -43 3 -53 -4 -4 -7 -29 -7 -55 -1 -36 -9 -60 -30
-93 -24 -35 -30 -55 -30 -100 -1 -45 -6 -61 -28 -87 -31 -37 -38 -39 -38 -12
0 11 -7 20 -15 20 -14 0 -21 20 -15 45 1 6 3 40 4 77 1 54 -1 65 -11 56 -10
-8 -13 -6 -13 10 0 26 19 39 31 21 6 -10 10 -9 15 6 4 11 12 23 18 27 14 10
48 107 49 141 0 17 5 27 15 27 12 0 13 -10 8 -52z m124 2 c0 -22 -16 -35 -25
-20 -9 14 4 52 16 45 5 -4 9 -15 9 -25z m-350 -31 c0 -27 2 -30 15 -19 8 7 15
20 15 28 0 30 22 -5 32 -50 12 -58 10 -109 -7 -134 -13 -21 -15 -41 -12 -158
1 -31 -3 -51 -11 -54 -7 -2 -12 -15 -12 -28 0 -25 -25 -94 -34 -94 -3 0 -5 15
-4 33 1 18 -4 42 -11 54 -16 30 -22 133 -9 157 8 14 8 21 0 24 -6 2 -8 10 -5
19 4 9 -1 21 -11 29 -17 12 -17 15 0 60 13 34 19 42 24 29 5 -15 7 -15 19 -1
11 13 10 18 -2 30 -8 8 -17 12 -21 9 -11 -11 -6 45 6 72 15 34 28 32 28 -6z
m333 -135 c-15 -45 -30 -74 -39 -74 -19 0 -19 64 1 80 8 7 15 20 15 29 0 9 7
27 16 40 30 42 33 3 7 -75z m315 44 c-3 -7 -24 -14 -49 -16 -28 -2 -40 0 -34
6 21 21 89 28 83 10z m82 -15 c0 -10 -52 -63 -62 -63 -16 0 -7 22 20 45 27 25
42 31 42 18z m-945 -32 c-3 -11 -1 -23 6 -26 8 -5 9 -28 5 -75 -5 -44 -3 -70
3 -75 6 -3 11 -33 11 -66 0 -33 4 -59 10 -59 6 0 10 -18 10 -39 0 -22 -4 -43
-10 -46 -11 -7 -14 -45 -4 -45 3 0 14 10 25 23 l18 22 1 -28 c0 -20 -14 -42
-50 -80 -46 -48 -50 -50 -50 -27 0 32 -15 55 -29 45 -9 -5 -9 -10 -1 -20 21
-25 -14 -80 -80 -129 -34 -26 -66 -46 -71 -46 -16 0 -20 21 -9 55 13 40 5 84
-13 66 -14 -14 -38 5 -30 25 4 10 10 11 24 3 19 -10 28 4 10 16 -6 3 -10 13
-10 23 0 9 -9 48 -20 87 -24 79 -26 117 -9 144 9 15 9 26 1 43 -12 26 -6 78 8
78 5 0 9 -4 9 -10 0 -5 3 -9 8 -7 11 3 13 -11 6 -49 -4 -23 -3 -39 5 -43 8 -5
7 -16 -1 -39 -11 -27 -10 -34 1 -41 10 -6 12 -20 8 -45 -3 -20 -2 -36 4 -36 5
0 9 5 9 11 0 8 5 8 15 -1 16 -14 21 -6 27 40 4 36 29 31 43 -10 10 -28 17 -35
37 -33 21 1 28 -5 35 -30 10 -30 10 -29 9 18 -1 35 3 49 12 48 14 -3 16 35 2
57 -7 11 -10 7 -10 -17 0 -22 -5 -33 -14 -33 -17 0 -21 5 -30 44 -6 23 -4 27
8 23 10 -4 16 -1 16 9 0 12 4 12 20 4 16 -8 20 -8 20 4 0 8 -6 21 -14 29 -10
9 -13 27 -9 53 4 28 1 43 -10 52 -12 10 -13 17 -3 37 13 30 26 32 26 5 0 -11
5 -20 11 -20 8 0 10 18 6 59 -6 52 -3 71 10 71 3 0 2 -9 -2 -19z m894 -57 c7
-6 -11 -24 -25 -24 -8 0 -14 -6 -14 -14 0 -14 -63 -31 -79 -21 -5 3 -16 2 -25
-1 -15 -6 -15 -8 1 -20 17 -13 17 -13 -4 -14 -12 0 -23 5 -25 12 -3 8 -12 9
-35 1 -32 -12 -123 -6 -123 8 0 14 19 20 134 44 63 12 122 28 132 33 16 10 50
7 63 -4z m-782 -176 c5 -46 5 -87 1 -92 -4 -5 -18 2 -33 18 -23 25 -24 30 -15
74 24 110 35 110 47 0z m-270 14 c-19 -18 -22 -7 -10 38 l6 24 10 -22 c8 -18
7 -27 -6 -40z m653 -17 c-13 -16 -8 -20 35 -28 11 -2 19 -8 18 -14 -3 -14 77
-34 137 -33 103 0 110 1 160 35 51 34 90 45 90 25 0 -6 -15 -20 -32 -31 -25
-15 -27 -19 -10 -14 22 6 23 5 12 -15 -10 -18 -17 -21 -46 -15 -21 3 -34 2
-34 -5 0 -5 9 -10 20 -10 11 0 20 -4 20 -8 0 -13 -110 -29 -192 -28 -42 0 -74
-2 -73 -5 6 -9 -213 3 -260 15 -26 7 -35 26 -12 26 8 0 22 9 33 21 10 11 26
18 36 15 13 -3 18 1 16 12 -2 12 3 16 20 15 14 -2 21 1 17 8 -9 13 23 49 43
49 12 0 12 -3 2 -15z m-630 -37 c0 -10 -4 -18 -9 -18 -10 0 -21 47 -13 55 8 7
22 -17 22 -37z m-260 -43 c0 -14 4 -25 9 -25 5 0 5 -15 1 -35 -4 -19 -4 -35 0
-35 5 0 11 -15 15 -32 4 -18 18 -50 31 -70 13 -21 24 -50 24 -65 0 -30 49
-139 50 -110 0 14 30 27 30 13 0 -17 -18 -40 -58 -73 -27 -22 -43 -31 -39 -20
4 11 0 20 -13 27 -11 6 -17 16 -14 25 4 8 -1 27 -10 41 -10 14 -17 46 -18 75
0 27 -4 49 -10 49 -6 0 -7 7 -4 16 3 8 -1 23 -10 31 -11 11 -14 26 -10 45 3
16 1 48 -6 72 -6 23 -8 54 -4 69 8 35 36 36 36 2z m725 -65 c3 -5 17 -10 31
-10 27 0 33 -19 7 -22 -59 -5 -74 -4 -79 4 -3 4 -10 6 -15 3 -5 -4 -9 -2 -9 4
0 22 54 40 65 21z m-825 -50 c0 -20 5 -30 15 -30 20 0 19 -36 0 -44 -8 -3 -18
-7 -22 -8 -3 -2 -7 23 -9 55 -2 32 1 57 6 57 6 0 10 -13 10 -30z m743 -12 c12
-6 27 -17 32 -23 11 -14 52 -25 100 -29 17 -2 37 -6 45 -9 14 -5 30 -8 134
-24 26 -4 40 -11 43 -24 3 -11 10 -19 17 -20 6 0 0 -5 -13 -10 -14 -5 -31 -7
-39 -4 -13 5 -13 3 -1 -11 13 -16 11 -17 -19 -11 -19 4 -56 18 -84 32 -27 14
-57 25 -66 24 -10 0 -3 -7 16 -16 17 -9 32 -20 32 -25 0 -11 -8 -10 -65 8 -94
31 -123 46 -145 76 -13 17 -28 27 -36 24 -18 -7 -18 4 2 32 18 26 18 26 47 10z
m347 -8 c0 -5 7 -10 15 -10 8 0 15 -5 15 -11 0 -10 -31 -7 -82 7 -31 9 -20 24
17 24 19 0 35 -4 35 -10z m-434 -55 c-4 -10 8 -22 36 -36 55 -28 146 -59 173
-59 23 0 75 -41 75 -60 0 -6 -21 0 -47 13 -27 14 -73 33 -103 43 -30 10 -59
22 -64 26 -17 14 -29 9 -16 -7 19 -23 -6 -19 -42 6 -34 25 -50 58 -36 77 14
17 31 15 24 -3z m-580 -259 c7 -22 11 -42 8 -45 -4 -3 -9 -1 -11 6 -2 7 -15
28 -28 47 -22 33 -25 59 -15 121 0 6 8 -12 17 -40 8 -27 21 -68 29 -89z m447
109 c26 -23 37 -43 17 -30 -5 3 -10 1 -10 -4 0 -6 6 -11 14 -11 7 0 16 -8 20
-17 3 -10 9 -23 12 -30 3 -7 -2 -10 -15 -6 -38 10 -22 -14 29 -41 27 -15 55
-36 61 -47 6 -13 19 -19 32 -17 12 1 33 -5 47 -15 13 -9 32 -17 41 -17 19 0
42 -24 32 -33 -6 -7 12 -11 30 -8 26 4 147 -37 147 -50 0 -15 -28 -10 -76 12
-31 13 -55 18 -75 14 -30 -7 -31 -25 0 -25 9 0 30 -13 46 -30 20 -21 24 -30
14 -30 -9 0 -26 11 -39 25 -13 14 -32 25 -42 25 -10 0 -35 15 -55 34 -37 32
-119 76 -144 76 -18 0 -102 51 -95 58 7 6 -109 82 -126 82 -6 0 1 12 15 26 24
23 30 25 58 15 l32 -11 -6 40 c-6 46 -2 48 36 15z m332 0 c24 -23 33 -45 19
-45 -4 0 -17 10 -28 23 -12 12 -31 27 -42 34 -18 11 -18 12 4 12 13 1 34 -10
47 -24z m-924 -67 c-2 -7 -5 -23 -6 -35 -2 -32 -9 -36 -27 -16 -10 12 -14 29
-11 50 4 28 8 31 27 23 11 -4 19 -14 17 -22z m-149 14 c3 8 9 4 17 -11 10 -18
10 -25 1 -31 -7 -4 -9 -16 -5 -29 12 -40 -12 -21 -29 22 -20 52 -20 63 -2 48
11 -9 15 -9 18 1z m648 -89 c60 -46 72 -63 46 -63 -7 0 -16 9 -19 20 -3 13
-11 18 -20 14 -22 -8 -49 9 -70 45 -25 43 -7 39 63 -16z m-72 -6 c6 -5 12 -18
12 -28 0 -29 65 -92 89 -84 15 4 28 -5 56 -39 41 -48 81 -73 87 -54 3 8 12 6
28 -5 14 -9 34 -17 46 -17 12 0 38 -7 58 -15 20 -9 41 -13 46 -10 5 3 22 0 36
-8 l27 -14 -36 -7 c-20 -4 -45 -3 -54 2 -10 5 -34 12 -53 15 -33 6 -34 6 -15
-8 10 -8 34 -21 52 -27 18 -7 33 -16 33 -20 0 -12 -11 -10 -60 14 -76 37 -88
41 -98 34 -6 -3 -14 -1 -17 5 -4 5 -14 8 -22 4 -21 -7 -70 24 -54 35 9 5 -1
18 -29 40 -22 18 -44 30 -47 26 -4 -4 2 -13 14 -21 12 -8 21 -25 21 -40 0 -24
-2 -25 -21 -12 -22 15 -26 21 -51 79 -10 22 -27 40 -44 47 -35 13 -54 30 -71
63 -13 25 -12 30 3 47 18 19 37 19 64 -2z m-421 -8 c7 -7 9 -24 6 -39 -3 -15
0 -31 6 -34 6 -4 11 -14 11 -23 0 -27 -45 11 -46 39 -1 14 -4 30 -8 37 -8 12
0 31 13 31 4 0 12 -5 18 -11z m87 -21 c3 -13 6 -27 6 -33 -1 -15 -30 27 -30
42 0 22 17 15 24 -9z m-179 -45 c3 -13 2 -23 -3 -23 -11 0 -22 24 -22 48 0 21
15 5 25 -25z m465 -34 c0 -13 -60 22 -70 41 -17 32 -11 32 30 -1 22 -18 40
-36 40 -40z m-97 16 c4 -8 24 -26 47 -40 26 -16 40 -33 40 -46 0 -22 34 -72
43 -63 2 3 25 -8 51 -24 30 -19 54 -28 71 -25 19 4 27 0 37 -22 6 -14 26 -34
42 -42 17 -9 26 -18 19 -20 -7 -2 -21 0 -32 6 -33 18 -48 12 -21 -9 21 -17 23
-21 10 -30 -23 -15 -34 -12 -76 20 -21 17 -61 45 -89 64 -59 40 -107 89 -103
104 2 6 -19 30 -46 54 -44 40 -48 46 -37 66 13 25 36 29 44 7z m-102 -104 c10
-16 34 -37 54 -47 24 -11 35 -22 33 -33 -3 -9 10 -28 29 -44 18 -16 33 -24 33
-19 0 6 -4 14 -10 17 -5 3 -10 11 -10 16 0 6 5 7 12 3 7 -5 9 -2 5 9 -5 13 0
12 28 -4 30 -18 33 -23 22 -40 -6 -10 -18 -19 -26 -19 -10 0 -5 -10 14 -30 16
-16 26 -32 23 -35 -3 -4 -21 9 -39 28 -19 19 -43 36 -53 38 -11 2 -44 33 -74
69 -30 36 -63 69 -74 74 -28 14 -21 40 12 45 3 1 12 -12 21 -28z m89 -10 c17
-33 12 -46 -10 -26 -21 19 -27 45 -10 45 5 0 14 -9 20 -19z m-127 -99 c10 -10
14 -21 11 -24 -3 -3 7 -14 21 -25 52 -35 90 -72 76 -73 -8 0 -24 8 -35 17 -15
13 -14 10 3 -10 14 -15 22 -29 19 -32 -9 -9 -68 7 -66 19 4 22 -23 84 -47 106
-14 13 -25 27 -25 32 0 15 27 8 43 -10z m-3 -54 c0 -15 -28 -9 -34 8 -11 30
-6 37 14 19 11 -10 20 -22 20 -27z m551 17 c16 -9 27 -20 24 -26 -4 -5 -9 -8
-13 -6 -41 19 -62 32 -62 39 0 12 18 10 51 -7z"/>
<path d="M344 2128 c-42 -61 -77 -117 -78 -124 -1 -11 354 -264 372 -264 4 0
45 54 90 119 l82 120 -36 21 c-19 12 -36 21 -38 19 -1 -2 -28 -41 -60 -87
l-57 -82 -45 30 c-24 17 -44 33 -44 36 0 2 20 35 45 72 l45 66 -28 23 c-15 12
-30 22 -34 23 -4 0 -28 -31 -54 -69 l-48 -69 -43 29 -42 29 60 87 c58 82 60
88 43 101 -50 37 -48 38 -130 -80z"/>
<path d="M2700 1653 c-104 -10 -120 -14 -120 -32 0 -13 29 -30 103 -64 86 -39
103 -43 106 -30 2 9 -4 22 -13 28 -26 19 -20 62 9 69 14 4 25 13 25 21 0 15
-23 17 -110 8z m30 -37 c0 -27 -13 -32 -55 -22 -60 14 -57 26 5 26 28 0 50 -2
50 -4z"/>
<path d="M2555 1502 c-3 -8 -4 -16 -3 -17 3 -3 205 -55 213 -55 3 0 5 8 5 18
0 25 -206 77 -215 54z"/>
<path d="M2543 1422 c-29 -18 -44 -111 -20 -130 6 -5 45 -20 85 -33 72 -23 73
-23 92 -4 10 11 22 32 25 48 6 24 4 29 -24 38 -39 14 -42 34 -4 24 45 -11 47
-11 50 5 3 11 -11 21 -46 32 l-50 16 -15 -46 c-13 -36 -13 -47 -4 -54 8 -4 18
-1 25 8 13 17 33 11 33 -10 0 -30 -25 -36 -79 -18 -58 18 -67 29 -57 67 5 18
13 25 30 25 23 0 41 22 29 34 -9 8 -56 7 -70 -2z"/>
<path d="M2484 1262 c-20 -13 -45 -73 -42 -100 2 -21 15 -34 63 -59 81 -45
112 -41 143 14 32 59 24 77 -59 118 -71 36 -86 40 -105 27z m86 -57 c59 -30
64 -36 49 -69 -15 -32 -35 -33 -94 -4 -47 23 -55 41 -35 79 14 25 21 24 80 -6z"/>
<path d="M2344 1025 c-8 -20 -14 -14 90 -79 l87 -55 39 62 c28 44 36 64 27 69
-19 12 -20 11 -50 -37 l-28 -44 -67 43 c-37 23 -73 46 -80 50 -7 4 -15 1 -18
-9z"/>
<path d="M2276 936 c-30 -39 -33 -68 -11 -90 47 -46 105 -86 127 -86 38 0 95
71 82 104 -3 8 -31 35 -61 60 -69 57 -100 60 -137 12z m112 -38 c44 -34 49
-46 32 -79 -15 -28 -37 -24 -86 17 -48 39 -52 49 -27 76 22 25 33 23 81 -14z"/>
<path d="M2207 854 c-14 -14 -6 -26 50 -85 56 -59 68 -96 15 -47 -47 44 -162
72 -162 38 0 -5 32 -44 71 -85 57 -60 74 -73 86 -64 11 10 3 22 -42 70 -53 55
-66 79 -45 79 5 0 14 -9 20 -19 14 -28 136 -67 155 -51 13 10 4 24 -56 89 -76
81 -81 85 -92 75z"/>
<path d="M2029 706 c-53 -36 -54 -56 -6 -127 56 -83 75 -91 130 -53 23 16 43
39 45 49 4 29 -20 58 -41 49 -13 -5 -15 -10 -7 -19 13 -16 5 -37 -20 -53 -27
-16 -41 -8 -73 42 -33 53 -34 69 -3 85 19 11 27 10 44 0 33 -21 51 2 23 30
-27 27 -48 26 -92 -3z"/>
<path d="M1882 618 l-53 -30 47 -86 c26 -48 50 -91 54 -95 4 -5 32 4 61 18 66
33 63 31 55 50 -5 14 -10 13 -45 -5 -51 -25 -55 -25 -69 4 -10 22 -8 25 19 36
35 15 41 23 33 43 -5 13 -11 12 -41 -6 -35 -20 -36 -20 -49 -2 -20 27 -19 29
31 53 31 15 43 26 39 37 -8 20 -20 18 -82 -17z"/>
<path d="M1737 556 c-58 -22 -62 -26 -54 -49 3 -9 9 -9 29 0 29 13 25 19 68
-99 13 -34 27 -58 36 -58 20 0 18 18 -11 94 -31 82 -31 84 -1 97 14 7 22 17
19 25 -7 18 -17 17 -86 -10z"/>
</g>
</svg>
